<?xml version="1.0" encoding="UTF-8" standalone="no"?>
<!-- Generator: Adobe Illustrator 20.1.0, SVG Export Plug-In . SVG Version: 6.00 Build 0)  -->

<svg
   xmlns:dc="http://purl.org/dc/elements/1.1/"
   xmlns:cc="http://creativecommons.org/ns#"
   xmlns:rdf="http://www.w3.org/1999/02/22-rdf-syntax-ns#"
   xmlns:svg="http://www.w3.org/2000/svg"
   xmlns="http://www.w3.org/2000/svg"
   xmlns:sodipodi="http://sodipodi.sourceforge.net/DTD/sodipodi-0.dtd"
   xmlns:inkscape="http://www.inkscape.org/namespaces/inkscape"
   version="1.1"
   id="Layer_1"
   x="0px"
   y="0px"
   viewBox="0 0 400 225"
   style="enable-background:new 0 0 400 225;"
   xml:space="preserve"
   sodipodi:docname="icon.svg"
   inkscape:version="0.92.4 (5da689c313, 2019-01-14)"><metadata
   id="metadata919"><rdf:RDF><cc:Work
       rdf:about=""><dc:format>image/svg+xml</dc:format><dc:type
         rdf:resource="http://purl.org/dc/dcmitype/StillImage" /></cc:Work></rdf:RDF></metadata><defs
   id="defs917">
		
		
	</defs><sodipodi:namedview
   pagecolor="#ffffff"
   bordercolor="#666666"
   borderopacity="1"
   objecttolerance="10"
   gridtolerance="10"
   guidetolerance="10"
   inkscape:pageopacity="0"
   inkscape:pageshadow="2"
   inkscape:window-width="1858"
   inkscape:window-height="1177"
   id="namedview915"
   showgrid="false"
   inkscape:zoom="1.1189965"
   inkscape:cx="69.457909"
   inkscape:cy="-109.82793"
   inkscape:window-x="54"
   inkscape:window-y="-8"
   inkscape:window-maximized="1"
   inkscape:current-layer="Layer_2" />
<style
   type="text/css"
   id="style868">
	.st0{fill:#FFC234;}
	.st1{fill:#E1AE37;}
	.st2{fill:#E29563;}
	.st3{fill:#3F4040;}
	.st4{fill:#FFFFFF;}
	.st5{fill:#D66F6E;}
	.st6{fill:#C9C8CB;}
	.st7{fill:#F7A896;}
	.st8{fill:#F7A896;fill-opacity:0.5;}
	.st9{fill:#EF5331;}
	.st10{opacity:0.8;fill:#C9C8CB;enable-background:new    ;}
	.st11{fill:none;}
</style>
<title
   id="title870">questionaire</title>
<g
   id="Layer_2">
	<rect
   style="fill:none"
   y="0"
   x="0"
   id="rect910"
   height="225"
   width="400"
   class="st11" />
<g
   id="g2558"
   transform="translate(-4,-221.52584)"><path
     inkscape:connector-curvature="0"
     id="path890-7"
     d="m 129.70117,329.02623 c -5.29999,0 -9.60117,4.29961 -9.70117,9.59961 v 36.76562 19.93555 c 0,1.9875 0.60527,3.83301 1.64063,5.36523 3.1e-4,4.6e-4 -3.1e-4,0.002 0,0.002 0.1723,0.2549 0.35738,0.50159 0.55273,0.73828 0.19599,0.23745 0.40353,0.46414 0.62109,0.68164 0.21688,0.21681 0.44298,0.42377 0.67969,0.61914 3.7e-4,3.1e-4 0.002,-3.1e-4 0.002,0 0.47384,0.39095 0.98567,0.7378 1.5293,1.0332 7.9e-4,4.3e-4 10e-4,0.002 0.002,0.002 0.54341,0.2951 1.11846,0.53977 1.71874,0.72657 5.9e-4,1.8e-4 0.001,-1.9e-4 0.002,0 0.29999,0.0933 0.60619,0.17249 0.91797,0.23633 6.2e-4,1.2e-4 0.001,-1.3e-4 0.002,0 0.3118,0.0638 0.62919,0.11376 0.95117,0.14648 6.5e-4,7e-5 0.001,-7e-5 0.002,0 0.32201,0.0327 0.64793,0.0488 0.97852,0.0488 6.6e-4,0 0.001,0 0.002,0 h 43.09961 13.59961 c 5.3,-0.10001 9.59961,-4.39922 9.59961,-9.69922 v -3.4082 l 0.0996,0.008 v -27.90039 l -10.5,10.5 v 0.96484 h -0.0996 v 18.93555 0.0996 H 171.20117 130.5 v -19.0354 -35.86523 h 0.0996 39.10156 l 8.89844,-8.90039 c 0.6,-0.6 1.20039,-1.09961 1.90039,-1.59961 z"
     style="fill:#f7a896;stroke-width:0.99999994" /><path
     style="fill:#ef5331;stroke-width:0.99999994"
     inkscape:connector-curvature="0"
     id="path894-9"
     d="m 196.50039,348.52649 -28,27.99999 -5.3,5.30001 c -1.5,1.4 -3.8,1.4 -5.3,0 l -5.3,-5.30001 -14,-13.99999 c -1.4,-1.5 -1.4,-3.8 0,-5.3 l 5.3,-5.30001 c 1.5,-1.39999 3.8,-1.39999 5.3,0 l 11.4,11.4 25.4,-25.29999 c 1.5,-1.4 3.8,-1.4 5.3,0 l 5.3,5.3 c 1.4,1.4 1.4,3.8 -0.1,5.2 z"
     class="st9" /><path
     id="path896-5"
     d="m 220.20117,341.92578 c -2.4,0 -4.40039,1.90039 -4.40039,4.40039 v 1.79883 c 0,2.4 2.00039,4.40039 4.40039,4.40039 h 47.00195 v -10.59961 z"
     style="fill:#f7a896;stroke-width:0.99999994"
     inkscape:connector-curvature="0" /><path
     id="path896-6"
     d="m 220.20117,360.82617 c -2.4,0 -4.40039,1.90039 -4.40039,4.40039 v 1.79883 c 0,2.4 2.00039,4.40039 4.40039,4.40039 h 47.00195 v -10.59961 z"
     style="fill:#f7a896;stroke-width:0.99999994"
     inkscape:connector-curvature="0" /><path
     id="path896-6-8"
     d="m 220.20117,381.42578 c -2.4,0 -4.40039,1.90039 -4.40039,4.40039 v 1.79883 c 0,2.4 2.00039,4.40039 4.40039,4.40039 h 47.00195 v -10.59961 z"
     style="fill:#f7a896;stroke-width:0.99999994"
     inkscape:connector-curvature="0" /><path
     id="path896-9"
     d="m 124.40039,263.125 c -2.4,0 -4.40039,1.90038 -4.40039,4.40039 v 1.79883 c 0,2.4 2.00039,4.40039 4.40039,4.40039 h 62.61328 0.78516 32.40234 15.97852 14.23242 16.79101 16.39649 c 2.4,0 4.40039,-2.00039 4.40039,-4.40039 v -1.79883 c 0,-2.4 -2.00039,-4.40039 -4.40039,-4.40039 h -16.39649 -16.79101 -14.23242 -15.97852 -32.40234 -0.78516 z"
     style="opacity:0.8;vector-effect:none;fill:#c9c8cb;fill-opacity:1;stroke-width:0.99999994;stroke-linecap:butt;stroke-linejoin:miter;stroke-miterlimit:4;stroke-dasharray:none;stroke-dashoffset:0;stroke-opacity:1"
     inkscape:connector-curvature="0" /><path
     id="path896-9-1"
     d="m 236.17969,282.02539 v 0.002 h -15.97852 -32.40234 -0.78516 -62.61328 c -2.4,0 -4.40039,1.90038 -4.40039,4.40039 v 1.79883 c 0,2.4 2.00039,4.40039 4.40039,4.40039 h 62.61328 0.78516 32.40234 30.21094 16.79101 v -0.002 h 16.39649 c 2.4,0 4.40039,-2.00039 4.40039,-4.40039 v -1.79883 c 0,-2.4 -2.00039,-4.40039 -4.40039,-4.40039 z"
     style="opacity:0.8;vector-effect:none;fill:#c9c8cb;fill-opacity:1;stroke-width:0.99999994;stroke-linecap:butt;stroke-linejoin:miter;stroke-miterlimit:4;stroke-dasharray:none;stroke-dashoffset:0;stroke-opacity:1"
     inkscape:connector-curvature="0" /><path
     id="path896-9-1-2"
     d="m 236.17969,302.625 v 0.002 h -15.97852 -32.40234 -0.78516 -62.61328 c -2.4,0 -4.40039,1.90038 -4.40039,4.40039 v 1.79883 c 0,2.4 2.00039,4.40039 4.40039,4.40039 h 62.61328 0.78516 32.40234 30.21094 16.79101 v -0.002 h 16.39649 c 2.4,0 4.40039,-2.00039 4.40039,-4.40039 v -1.79883 c 0,-2.4 -2.00039,-4.40039 -4.40039,-4.40039 z"
     style="opacity:0.8;vector-effect:none;fill:#c9c8cb;fill-opacity:1;stroke-width:0.99999994;stroke-linecap:butt;stroke-linejoin:miter;stroke-miterlimit:4;stroke-dasharray:none;stroke-dashoffset:0;stroke-opacity:1"
     inkscape:connector-curvature="0" /><path
     id="path896-5-8"
     d="m 236.17969,341.92578 v 10.59961 h 47.41992 c 2.4,0 4.40039,-2.00039 4.40039,-4.40039 v -1.79883 c 0,-2.4 -2.00039,-4.40039 -4.40039,-4.40039 z"
     style="fill:#f7a896;stroke-width:0.99999994"
     inkscape:connector-curvature="0" /><path
     id="path896-6-9"
     d="m 236.17969,360.82422 v 10.59961 h 47.41992 c 2.4,0 4.40039,-2.00039 4.40039,-4.40039 v -1.79883 c 0,-2.4 -2.00039,-4.40039 -4.40039,-4.40039 z"
     style="fill:#f7a896;stroke-width:0.99999994"
     inkscape:connector-curvature="0" /><path
     id="path896-6-8-8"
     d="m 236.17969,381.42578 v 10.59961 h 47.41992 c 2.4,0 4.40039,-2.00039 4.40039,-4.40039 v -1.79883 c 0,-2.4 -2.00039,-4.40039 -4.40039,-4.40039 z"
     style="fill:#f7a896;stroke-width:0.99999994"
     inkscape:connector-curvature="0" /></g></g>
</svg>